<?xml version="1.0" standalone="no"?>
<!DOCTYPE svg PUBLIC "-//W3C//DTD SVG 20010904//EN"
 "http://www.w3.org/TR/2001/REC-SVG-20010904/DTD/svg10.dtd">
<svg version="1.0" xmlns="http://www.w3.org/2000/svg"
 width="512.000000pt" height="512.000000pt" viewBox="0 0 512.000000 512.000000"
 preserveAspectRatio="xMidYMid meet">
<metadata>
Created by potrace 1.11, written by Peter Selinger 2001-2013
</metadata>
<g transform="translate(0.000000,512.000000) scale(0.100000,-0.100000)"
fill="#000000" stroke="none">
<path d="M857 4924 c-10 -13 -21 -23 -25 -23 -20 3 -23 -3 -11 -17 12 -15 11
-16 -9 -10 -23 8 -23 7 -5 -13 19 -23 28 -28 17 -9 -4 7 -3 8 4 4 7 -4 10 1 7
14 -2 11 0 20 5 20 11 0 20 -26 12 -35 -4 -3 -7 -14 -7 -22 0 -9 -6 -17 -13
-19 -7 -1 -8 0 -2 3 5 2 10 9 10 14 0 6 -5 7 -10 4 -6 -4 -18 -1 -26 6 -12 10
-17 10 -27 -1 -10 -10 -9 -12 5 -7 10 3 20 2 23 -3 6 -10 -5 -13 -35 -11 -10
0 -11 -1 -2 -5 19 -9 14 -27 -5 -20 -16 6 -16 6 0 -12 11 -12 15 -26 11 -38
-6 -16 -5 -17 7 -6 7 6 18 12 23 12 6 0 3 -5 -7 -11 -9 -6 -14 -15 -11 -21 4
-6 3 -8 -3 -5 -6 4 -13 0 -16 -7 -6 -16 20 -43 30 -32 4 4 1 11 -7 16 -9 6
-10 10 -3 10 18 0 27 -20 14 -33 -8 -8 -14 -8 -23 1 -8 8 -18 7 -40 -6 -29
-17 -38 -34 -16 -29 7 1 19 9 26 17 10 11 14 12 18 2 3 -6 9 -10 13 -8 4 3 8
-1 8 -8 0 -9 -10 -13 -24 -11 -14 1 -22 -2 -20 -9 2 -6 20 -11 40 -10 20 0 34
-3 31 -8 -3 -5 -10 -6 -15 -3 -9 6 -14 -9 -9 -30 1 -5 -9 -1 -21 10 -17 15
-21 16 -17 4 5 -12 0 -15 -20 -14 -16 1 -26 7 -24 14 1 7 -3 11 -10 8 -7 -2
-12 -9 -11 -14 2 -11 -47 -10 -66 1 -9 6 -12 5 -8 -1 4 -6 -12 -10 -40 -12
-26 -1 -48 -3 -50 -4 -2 -2 -4 -62 -4 -133 -1 -77 -6 -135 -13 -143 -8 -11 -8
-13 1 -8 16 10 15 -572 -1 -592 -7 -10 -7 -13 0 -8 7 4 11 -193 11 -683 l1
-688 -57 -25 c-31 -14 -81 -28 -110 -31 -30 -4 -57 -9 -60 -12 -3 -2 -6 -22
-7 -44 -1 -30 -10 -48 -42 -82 -107 -115 -175 -243 -206 -396 -19 -90 -13
-251 13 -332 41 -130 132 -249 243 -317 32 -20 58 -38 58 -40 0 -2 -5 -1 -12
3 -7 4 -8 3 -4 -5 4 -6 11 -9 16 -6 11 7 60 -15 60 -27 0 -5 4 -6 10 -3 5 3
10 1 10 -4 0 -6 3 -10 8 -9 14 5 58 -34 44 -39 -6 -3 -9 -9 -6 -15 3 -5 15 -2
27 9 22 18 22 18 4 -3 -10 -12 -17 -26 -15 -32 2 -5 -1 -10 -5 -10 -5 -1 -15
-8 -22 -18 -11 -16 -13 -16 -31 4 -13 15 -21 18 -30 11 -8 -7 -14 -7 -19 1 -3
5 -11 10 -17 10 -6 0 -6 -6 2 -15 7 -9 10 -18 6 -22 -3 -3 -6 -1 -6 5 0 7 -4
12 -10 12 -5 0 -8 -10 -6 -23 3 -12 5 -24 5 -27 1 -3 6 2 12 10 9 13 10 13 6
0 -2 -8 -10 -14 -16 -13 -6 2 -11 -2 -11 -8 0 -5 -4 -8 -9 -5 -12 8 -36 -22
-26 -32 4 -4 10 -1 12 6 3 6 9 12 15 12 5 0 0 -13 -11 -29 -12 -16 -21 -33
-21 -38 0 -4 5 0 11 10 5 9 15 17 21 17 6 0 5 -7 -3 -17 -11 -15 -10 -14 9 1
19 17 33 10 15 -8 -9 -8 -13 -36 -6 -36 3 0 12 8 20 18 14 16 14 16 9 0 -7
-23 11 -33 29 -18 10 8 15 9 15 2 0 -6 -4 -14 -10 -17 -6 -3 -10 -12 -10 -18
0 -8 3 -8 8 -2 9 13 32 17 32 6 0 -5 -3 -11 -8 -14 -4 -2 -2 -2 5 -1 15 4 35
-20 25 -32 -4 -4 0 -3 9 4 9 6 20 8 25 4 4 -4 3 0 -4 9 -6 9 -8 20 -4 24 4 5
1 5 -7 0 -10 -6 -12 -4 -6 6 5 8 5 11 0 7 -11 -10 -47 11 -40 23 6 8 -9 13
-29 10 -5 -1 -4 5 4 13 8 11 9 16 1 16 -6 0 -11 -5 -11 -11 0 -8 -5 -8 -15 1
-20 17 -8 32 18 24 19 -6 20 -5 9 9 -18 21 -7 37 20 29 16 -4 19 -2 13 8 -5 9
-4 11 4 6 17 -11 2 -29 -20 -23 -25 7 -24 -5 3 -29 20 -18 21 -18 15 -1 -4 11
-3 16 3 12 6 -3 10 -2 10 4 0 6 10 15 23 21 20 10 20 10 5 -3 -10 -8 -15 -17
-11 -20 3 -4 1 -7 -5 -7 -7 0 -12 -4 -12 -10 0 -15 24 -7 35 12 7 12 11 -25
12 -124 1 -77 4 -142 6 -144 2 -3 94 -5 203 -6 129 0 204 -5 213 -12 11 -8 13
-8 8 1 -6 9 35 12 173 11 l180 -2 52 -38 c69 -51 366 -214 443 -243 198 -75
443 -32 631 111 51 39 173 161 167 167 -2 2 176 4 394 5 290 0 402 -3 412 -11
10 -8 12 -8 8 -1 -9 15 53 16 72 1 11 -9 13 -9 8 0 -11 18 289 10 386 -10 84
-18 205 -16 279 4 64 17 147 19 141 3 -2 -7 -12 -10 -21 -7 -14 4 -15 3 -2 -6
11 -7 19 -6 33 6 17 16 17 16 11 -2 -5 -12 -4 -16 3 -12 6 4 14 0 17 -8 3 -8
9 -14 13 -13 4 1 18 -3 29 -10 12 -6 24 -9 27 -6 8 8 3 -70 -6 -83 -5 -8 -4
-13 3 -13 6 0 5 -9 -5 -23 -13 -21 -13 -23 5 -23 10 0 17 4 14 7 -2 4 0 10 6
14 6 4 8 10 6 14 -3 4 6 14 19 21 22 12 23 14 8 25 -11 8 -13 14 -5 19 7 4 12
2 12 -3 0 -6 5 -11 11 -11 5 0 7 5 4 10 -6 9 8 14 28 11 5 -1 6 3 3 8 -4 5 3
19 15 29 18 17 18 20 3 19 -9 -1 -19 5 -21 13 -4 12 -3 12 5 1 7 -9 11 -10 17
-2 5 9 10 9 20 1 10 -8 15 -8 21 1 4 8 3 9 -4 5 -7 -4 -12 -3 -12 2 0 12 46
36 57 29 5 -3 15 -2 23 3 11 7 14 32 13 104 0 64 3 94 10 89 6 -4 7 -1 1 8
-13 19 -13 150 -1 142 6 -3 7 -2 4 4 -4 6 3 30 14 53 12 24 33 80 47 124 23
70 26 99 27 211 0 108 -4 142 -23 203 -12 40 -20 77 -17 83 4 5 1 8 -7 7 -7
-2 -12 3 -11 10 2 6 -1 12 -6 12 -10 0 -27 39 -23 53 1 4 -2 7 -6 7 -11 0 -9
40 2 59 6 10 5 12 -2 7 -7 -4 -12 -2 -12 3 0 6 6 11 13 11 8 0 9 3 1 8 -15 10
-15 452 0 452 8 0 8 2 0 8 -18 12 -13 135 5 150 14 11 14 11 -1 6 -20 -7 -25
12 -5 19 10 4 10 6 0 6 -7 1 -13 9 -13 19 0 14 2 15 10 2 6 -9 10 -10 10 -3 0
6 -5 15 -11 19 -8 4 -7 9 2 15 8 5 9 9 3 9 -18 0 -12 219 6 230 8 5 18 6 24 3
5 -3 6 -1 2 5 -5 9 -13 9 -27 2 -10 -6 -19 -7 -19 -3 1 12 27 45 33 41 3 -2 8
0 12 4 4 3 -1 5 -10 4 -9 -1 -20 -8 -24 -15 -4 -6 -8 18 -8 54 -1 42 3 65 11
65 8 0 7 3 -1 8 -13 8 -14 52 -1 52 4 0 8 5 8 11 0 5 -4 7 -10 4 -5 -3 -10 -1
-10 4 0 6 6 11 13 11 8 0 7 4 -3 10 -13 9 -13 11 0 20 11 7 11 10 2 10 -17 0
-12 41 8 58 13 12 13 13 -2 8 -10 -3 -18 -1 -18 4 0 6 6 10 13 10 8 0 7 4 -3
10 -13 9 -13 11 0 20 8 5 10 10 4 10 -14 0 -14 382 0 392 8 5 7 8 0 8 -17 0
-13 102 4 119 12 13 12 16 -2 26 -19 14 -22 30 -3 19 9 -6 9 -4 -1 8 -16 20
-12 49 7 64 11 9 12 12 1 19 -9 5 -11 4 -6 -3 4 -7 3 -12 -1 -12 -5 0 -9 74
-8 164 0 105 4 162 10 158 16 -10 45 -9 39 0 -4 5 -12 7 -18 5 -7 -3 -18 4
-25 15 -11 17 -10 18 9 8 18 -10 24 -7 21 13 0 4 4 7 10 7 6 0 8 7 5 16 -4 12
-2 15 9 11 8 -4 17 -1 21 5 4 7 3 8 -4 4 -17 -11 -15 9 3 24 12 10 15 9 15 -5
0 -10 3 -16 6 -12 12 11 -5 39 -18 30 -7 -4 -17 -8 -23 -8 -5 -1 -9 -7 -7 -14
1 -7 -2 -10 -9 -5 -8 4 -9 3 -5 -4 4 -7 2 -12 -3 -12 -6 0 -11 5 -11 11 0 5
-5 7 -11 3 -6 -3 -3 6 6 20 17 26 45 46 62 46 4 -1 -4 -8 -19 -16 -16 -8 -28
-19 -28 -25 0 -6 12 -2 28 9 46 32 53 35 51 21 -1 -8 -1 -21 0 -29 1 -13 3
-13 11 0 6 9 3 23 -8 42 -13 22 -19 25 -31 15 -9 -6 -13 -7 -9 -3 9 10 -9 36
-24 36 -6 0 -5 -6 2 -15 10 -12 7 -19 -17 -39 -15 -14 -32 -25 -38 -25 -5 0
-4 3 3 6 10 4 10 8 1 19 -8 10 -8 14 0 14 6 0 11 5 11 11 0 5 -4 8 -9 5 -12
-8 -7 46 6 69 11 18 12 18 13 3 0 -10 -4 -18 -8 -18 -4 0 -8 -10 -9 -22 -2
-23 -2 -23 17 2 11 14 18 31 15 38 -2 6 0 12 4 12 10 0 25 -30 22 -43 -1 -5 3
-6 9 -2 6 4 10 12 9 18 -3 24 1 37 11 37 5 0 9 -3 9 -7 -3 -19 2 -33 12 -33 6
0 9 6 6 14 -3 8 3 22 14 32 15 13 16 19 7 26 -10 6 -8 8 5 8 20 0 22 -11 5
-28 -6 -6 -9 -15 -5 -18 9 -9 37 22 29 32 -4 5 1 2 12 -6 10 -8 22 -24 27 -37
5 -14 17 -23 29 -23 12 0 18 -5 15 -10 -4 -7 -14 -6 -28 1 -22 12 -22 12 -2
-8 16 -16 22 -18 28 -7 4 8 14 14 22 14 8 0 17 5 21 11 4 8 -1 9 -16 4 -15 -5
-20 -3 -16 3 4 7 -2 9 -17 6 -16 -2 -24 1 -24 11 0 10 5 11 17 5 11 -6 22 -5
30 3 7 7 10 7 7 2 -3 -6 4 -12 16 -12 15 -2 18 0 9 6 -10 6 -7 14 15 31 l28
22 -28 -17 c-23 -13 -28 -13 -25 -2 4 21 -59 78 -66 60 -3 -8 -1 -11 4 -8 6 4
7 -1 3 -11 -5 -14 -3 -16 11 -11 10 4 15 3 11 -3 -3 -6 2 -7 12 -4 16 5 15 4
-1 -7 -17 -10 -22 -8 -38 11 -10 12 -16 26 -13 30 6 10 -23 35 -32 27 -3 -4
-15 -2 -26 4 -15 9 -18 8 -12 -2 5 -8 4 -10 -3 -5 -7 4 -12 1 -12 -9 0 -9 4
-14 8 -11 4 2 14 0 22 -5 11 -7 8 -8 -10 -5 -20 3 -25 9 -23 29 1 19 -2 24
-13 20 -7 -3 -11 -9 -8 -14 3 -5 -3 -6 -12 -2 -13 5 -15 3 -9 -7 5 -9 4 -11
-4 -6 -6 4 -9 11 -6 16 3 4 -2 11 -11 14 -24 9 -29 7 -16 -6 19 -19 14 -27
-15 -24 -16 2 -26 7 -23 12 2 5 11 8 18 6 8 -2 11 1 7 7 -3 6 5 16 19 23 14 6
26 16 26 22 0 6 5 4 10 -4 7 -11 10 -12 10 -2 0 7 7 20 15 28 24 24 174 90
250 110 39 10 72 21 76 26 6 9 5 146 -2 151 -2 2 -27 15 -55 29 -50 25 -54 26
-116 13 -121 -26 -289 -103 -396 -182 -37 -28 -72 -37 -72 -20 0 8 -3 8 -8 2
-11 -15 -46 -19 -36 -4 5 9 3 9 -7 3 -20 -12 -103 -12 -111 0 -5 7 -8 6 -8 -3
0 -11 -3 -11 -17 0 -9 8 -14 9 -10 3 4 -8 -8 -11 -38 -10 -25 0 -45 5 -45 11
0 5 -4 4 -9 -3 -4 -8 -12 -14 -16 -14 -4 0 -12 6 -16 14 -5 7 -9 8 -9 3 0 -15
-50 -17 -50 -2 0 7 -3 8 -8 2 -11 -16 -52 -18 -52 -3 0 11 -2 10 -9 0 -4 -8
-12 -14 -16 -14 -4 0 -12 6 -16 14 -6 8 -9 9 -9 1 0 -12 -17 -12 -36 0 -6 3
-14 3 -18 0 -12 -12 -56 -14 -56 -3 0 5 -8 10 -17 10 -15 0 -16 -2 -3 -10 13
-8 13 -10 -2 -10 -9 0 -20 5 -23 10 -3 6 -12 10 -18 10 -8 0 -8 -3 1 -9 8 -5
-7 -8 -37 -8 -28 0 -51 4 -51 9 0 5 4 7 9 3 5 -3 12 -1 15 4 8 12 -23 8 -32
-5 -11 -15 -44 -17 -53 -2 -6 9 -9 10 -9 1 0 -9 -20 -12 -65 -10 -36 1 -65 6
-65 10 0 5 4 6 9 2 5 -3 12 -1 15 4 10 15 -25 6 -35 -10 -8 -12 -10 -12 -19 1
-6 10 -10 11 -10 3 0 -7 -9 -13 -20 -13 -11 0 -20 6 -20 13 0 7 -3 8 -8 2 -10
-14 -134 -15 -151 -1 -10 7 -13 7 -8 0 4 -7 -5 -11 -23 -11 -16 0 -27 4 -24 9
4 5 -3 4 -15 -4 -18 -11 -23 -10 -36 7 -12 16 -14 17 -9 3 3 -10 3 -18 -1 -18
-4 0 -14 8 -21 18 -10 12 -12 12 -9 2 4 -12 -5 -16 -45 -18 -35 -1 -50 2 -50
10 0 9 -4 8 -10 -2 -9 -13 -11 -13 -20 0 -6 10 -10 11 -10 3 0 -7 -8 -13 -18
-13 -10 0 -24 6 -31 13 -8 6 -11 7 -8 2 3 -6 -7 -12 -24 -13 -20 -2 -28 1 -24
9 5 8 2 8 -11 2 -23 -12 -64 -11 -83 1 -9 6 -12 5 -8 0 3 -6 -28 -10 -78 -11
-78 0 -83 1 -75 18 7 12 6 20 -2 25 -6 4 -8 3 -5 -2 3 -6 2 -16 -3 -24 -11
-18 -80 -23 -80 -6 0 8 -2 8 -8 0 -11 -17 -75 -13 -90 5 -11 14 -11 14 -7 0 4
-12 -1 -15 -25 -15 -24 0 -29 3 -25 15 4 12 2 12 -9 -1 -7 -10 -19 -18 -27
-18 -11 0 -11 2 1 10 9 6 10 10 3 10 -6 0 -15 -5 -19 -11 -5 -8 -8 -8 -13 0
-11 17 -51 23 -45 7 3 -8 -6 -12 -26 -12 -24 0 -29 3 -25 15 4 12 2 12 -9 -1
-14 -19 -32 -25 -21 -8 3 6 1 10 -4 10 -6 0 -11 -4 -11 -9 0 -5 -18 -8 -40 -8
-24 1 -39 6 -36 13 2 6 -2 11 -9 11 -7 0 -11 -6 -9 -12 3 -6 -2 -12 -11 -12
-9 0 -14 6 -11 12 2 6 -2 12 -10 12 -8 0 -13 -6 -10 -14 3 -7 1 -13 -4 -13 -6
0 -10 6 -10 13 0 7 -3 8 -8 2 -10 -14 -52 -18 -52 -5 0 6 4 9 9 5 15 -9 25 15
12 28 -9 9 -11 8 -6 -5 5 -13 2 -16 -14 -13 -11 2 -24 -1 -27 -7 -4 -7 -2 -8
4 -4 7 4 12 2 12 -3 0 -6 -9 -11 -21 -11 -13 0 -18 4 -13 12 5 7 3 8 -6 3 -20
-12 -130 -15 -130 -3 0 5 4 7 8 4 4 -2 14 -1 21 4 8 5 0 7 -23 6 -20 0 -40 -6
-44 -12 -9 -14 -162 -16 -162 -2 0 5 5 6 12 2 7 -5 8 -3 3 6 -7 11 -10 10 -19
-2 -9 -11 -37 -14 -128 -15 -114 0 -124 3 -119 31 1 5 -5 4 -13 -4 -18 -14
-22 -25 -6 -15 6 3 10 2 10 -2 0 -14 -238 -9 -252 5 -16 16 -33 16 -20 -1 8
-10 -1 -12 -43 -12 -47 0 -57 4 -71 25 -10 14 -11 20 -4 13 15 -14 43 -5 33
11 -4 6 0 5 9 -2 9 -8 14 -21 11 -30 -4 -15 -3 -15 6 -2 9 12 12 13 20 1 5 -8
11 -9 15 -3 3 6 3 12 -1 15 -5 2 -2 2 5 0 7 -1 11 1 8 5 -2 4 4 9 15 9 12 1
17 -3 13 -9 -4 -7 -2 -8 5 -4 6 4 9 12 6 17 -4 5 -3 9 2 10 4 0 18 2 31 3 13
2 21 -2 19 -8 -2 -6 -11 -10 -20 -8 -23 4 -29 -14 -10 -29 14 -12 16 -12 11 2
-4 9 -1 16 8 16 7 0 11 -3 9 -7 -2 -4 2 -7 10 -7 8 0 12 4 9 9 -3 4 2 5 10 2
9 -3 16 -1 16 4 0 19 -40 39 -71 36 -22 -3 -28 0 -23 9 6 8 3 8 -9 -1 -9 -8
-22 -10 -28 -6 -9 5 -7 10 7 15 15 7 13 8 -10 6 -16 -1 -31 4 -33 11 -3 7 1
10 10 7 7 -3 20 2 28 11 13 16 12 16 -6 7 -11 -6 -26 -8 -33 -6 -9 4 -13 -2
-10 -17 2 -15 -4 -27 -17 -34 -11 -6 -23 -15 -26 -20 -4 -5 -12 0 -18 11 -5
11 -7 24 -3 28 4 3 -2 14 -13 22 -14 11 -15 14 -4 10 9 -3 21 -1 26 4 7 7 16
4 28 -7 17 -17 17 -17 11 3 -6 20 -4 21 26 18 26 -3 29 -2 15 6 -9 6 -15 14
-12 20 3 5 2 16 -3 26 -9 14 -10 14 -17 -6 -3 -11 -11 -19 -16 -16 -5 4 -5 13
0 23 4 9 6 23 3 31 -3 9 0 11 8 6 8 -5 11 -4 6 3 -4 6 -14 9 -24 6 -14 -5 -14
-3 2 10 11 9 15 16 9 16 -7 0 -15 -5 -19 -11 -7 -12 -24 6 -24 26 0 6 4 4 9
-3 6 -10 10 -10 21 3 11 13 10 14 -5 9 -13 -5 -16 -4 -11 5 6 10 3 10 -12 0
-15 -9 -18 -17 -11 -25 14 -17 -3 -25 -19 -8 -7 8 -10 14 -7 14 3 0 -1 13 -9
29 -9 16 -12 32 -8 37 4 5 -1 2 -10 -5 -11 -8 -18 -9 -18 -3 0 6 9 17 21 25
11 8 17 17 12 20 -4 3 -16 -6 -26 -19z m27 -79 c3 -20 27 -45 38 -39 5 3 18
-2 28 -11 14 -13 17 -22 10 -35 -6 -11 -5 -21 2 -28 16 -16 2 -30 -28 -26 -36
4 -53 22 -20 20 14 0 26 4 26 9 0 6 -16 10 -36 10 -31 -1 -33 1 -18 12 16 11
15 13 -7 22 -17 7 -19 10 -6 10 17 1 20 20 4 32 -4 3 -10 21 -12 40 -3 28 -2
31 6 16 6 -11 12 -25 13 -32z m-78 -44 c-4 -5 -1 -11 6 -13 6 -2 12 -12 14
-21 1 -9 -2 -15 -7 -11 -5 3 -7 10 -4 15 4 5 1 9 -4 9 -6 0 -11 -6 -11 -12 0
-9 -3 -9 -9 1 -10 16 -4 41 11 41 5 0 7 -4 4 -9z m64 -35 c0 -2 -7 -7 -16 -10
-8 -3 -12 -2 -9 4 6 10 25 14 25 6z m121 -43 c-12 -20 -14 -14 -5 12 4 9 9 14
11 11 3 -2 0 -13 -6 -23z m-166 7 c-3 -5 -12 -10 -18 -10 -7 0 -6 4 3 10 19
12 23 12 15 0z m47 -8 c-7 -2 -10 -8 -7 -13 4 -5 -2 -6 -11 -2 -13 5 -15 3 -9
-7 6 -9 4 -11 -5 -5 -10 6 -10 11 3 20 9 7 14 15 10 19 -4 4 1 4 12 0 11 -5
14 -9 7 -12z m15 -32 c-1 -11 -5 -20 -9 -20 -10 0 -10 4 -2 24 8 22 13 20 11
-4z m-70 -62 c-3 -8 -6 -5 -6 6 -1 11 2 17 5 13 3 -3 4 -12 1 -19z m203 7 c4
3 14 -3 21 -13 7 -9 10 -14 5 -10 -5 4 -18 3 -28 -3 -28 -15 -47 4 -27 27 8
10 15 12 17 5 2 -6 7 -9 12 -6z m134 -23 c3 -5 -1 -9 -9 -9 -8 0 -12 4 -9 9 3
4 7 8 9 8 2 0 6 -4 9 -8z m-280 -10 c3 -5 -1 -9 -9 -9 -8 0 -15 4 -15 9 0 4 4
8 9 8 6 0 12 -4 15 -8z m36 -2 c0 -5 -5 -10 -11 -10 -5 0 -7 5 -4 10 3 6 8 10
11 10 2 0 4 -4 4 -10z m-87 -25 c-3 -9 -8 -14 -10 -11 -3 3 -2 9 2 15 9 16 15
13 8 -4z m102 -5 c3 -6 -1 -7 -9 -4 -18 7 -21 14 -7 14 6 0 13 -4 16 -10z
m845 0 c0 -5 -4 -10 -10 -10 -5 0 -10 5 -10 10 0 6 5 10 10 10 6 0 10 -4 10
-10z m525 0 c3 -5 1 -10 -4 -10 -6 0 -11 5 -11 10 0 6 2 10 4 10 3 0 8 -4 11
-10z m2555 -220 c0 -5 -4 -10 -10 -10 -5 0 -10 5 -10 10 0 6 5 10 10 10 6 0
10 -4 10 -10z m-80 -25 c14 -19 14 -19 -2 -6 -10 7 -18 18 -18 24 0 6 1 8 3 6
1 -2 9 -13 17 -24z m-83 8 c-4 -3 1 -12 11 -20 16 -12 16 -13 -2 -6 -14 5 -17
3 -11 -7 5 -9 4 -11 -4 -6 -6 4 -9 12 -6 17 4 5 0 9 -7 9 -9 0 -9 3 2 10 17
11 26 13 17 3z m37 -9 c3 -8 2 -12 -4 -9 -6 3 -10 10 -10 16 0 14 7 11 14 -7z
m122 -3 c-3 -5 1 -12 10 -15 8 -3 13 -10 10 -15 -9 -15 42 -19 56 -4 12 11 14
10 14 -5 0 -15 -7 -18 -31 -15 -41 4 -57 11 -51 22 3 5 -1 11 -9 15 -17 6 -20
26 -4 26 5 0 8 -4 5 -9z m-121 -42 c-3 -12 -7 -24 -10 -27 -3 -3 -3 5 -1 19 6
30 5 29 10 29 3 0 3 -10 1 -21z m45 -5 c0 -2 -7 -4 -15 -4 -8 0 -15 4 -15 10
0 5 7 7 15 4 8 -4 15 -8 15 -10z m-80 -4 c-8 -5 -19 -10 -25 -10 -5 0 -3 5 5
10 8 5 20 10 25 10 6 0 3 -5 -5 -10z m-25 -220 c4 -6 12 -7 18 -3 8 5 8 2 0
-9 -7 -8 -9 -19 -5 -24 4 -4 -1 -2 -10 5 -10 7 -16 17 -13 21 3 5 -1 11 -7 13
-9 4 -10 6 -1 6 6 1 15 -4 18 -9z m-5 -494 c0 -3 -4 -8 -10 -11 -5 -3 -10 -1
-10 4 0 6 5 11 10 11 6 0 10 -2 10 -4z m-4248 -2703 c-6 -3 -10 -9 -7 -13 3
-5 2 -11 -3 -14 -13 -8 -11 28 2 36 6 4 13 4 16 1 3 -3 -1 -8 -8 -10z m66 -13
c-7 -10 -14 -17 -17 -15 -4 4 18 35 25 35 2 0 -1 -9 -8 -20z m-32 -15 c-1 -8
-6 -18 -11 -22 -4 -5 -5 -2 0 6 6 11 4 13 -11 8 -18 -7 -18 -6 -2 6 10 8 14
18 10 22 -4 5 -2 5 5 2 6 -4 10 -14 9 -22z m66 7 c-7 -2 -9 -9 -6 -14 4 -7 2
-8 -4 -4 -6 4 -9 13 -6 21 4 8 11 12 17 8 8 -5 7 -8 -1 -11z m-108 -30 c2 -4
0 -14 -6 -22 -8 -12 -9 -11 -4 3 5 15 2 17 -17 12 -17 -5 -19 -4 -7 4 18 13
27 14 34 3z m86 -2 c0 -5 -2 -10 -4 -10 -3 0 -8 5 -11 10 -3 6 -1 10 4 10 6 0
11 -4 11 -10z m-110 -38 c0 -5 -7 -9 -15 -9 -8 0 -15 4 -15 9 0 4 7 8 15 8 8
0 15 -4 15 -8z m101 -119 c13 -16 12 -17 -3 -4 -10 7 -18 15 -18 17 0 8 8 3
21 -13z m3879 -167 c0 -2 -7 -7 -16 -10 -8 -3 -12 -2 -9 4 6 10 25 14 25 6z
m33 -13 c-6 -16 -5 -16 11 -3 25 20 46 22 39 2 -4 -10 -2 -13 5 -8 6 3 15 -2
21 -11 13 -22 14 -8 2 15 -8 15 -2 17 45 18 30 0 49 -3 42 -7 -6 -4 -16 -5
-20 -3 -4 3 -8 0 -8 -6 0 -7 -7 -10 -15 -7 -19 8 -30 -10 -16 -27 13 -15 -6
-46 -29 -49 -30 -5 -42 -18 -30 -32 9 -11 6 -16 -11 -25 -17 -10 -20 -10 -13
1 4 8 9 44 10 82 1 55 -1 66 -12 57 -7 -7 -10 -18 -7 -26 7 -19 -11 -18 -34 4
-10 9 -14 14 -9 10 17 -13 29 -9 17 6 -11 13 -10 16 16 25 1 1 -1 -7 -4 -16z"/>
<path d="M906 4790 c-14 -4 -16 -9 -8 -14 7 -4 10 -11 8 -15 -3 -4 6 -7 19 -7
14 0 27 6 29 12 3 9 -1 11 -11 7 -10 -4 -14 -2 -9 5 9 15 -5 21 -28 12z m21
-15 c0 -8 -4 -12 -9 -9 -5 3 -6 10 -3 15 9 13 12 11 12 -6z"/>
<path d="M4441 433 c9 -9 8 -13 0 -13 -7 0 -9 -5 -6 -10 5 -8 11 -8 20 0 10 8
15 8 21 -1 5 -8 3 -9 -6 -4 -9 6 -11 4 -5 -5 5 -8 4 -11 -1 -7 -6 3 -16 1 -24
-4 -12 -7 -10 -8 7 -6 25 3 56 27 47 36 -5 6 -9 7 -35 10 -5 0 -8 5 -5 9 3 5
-1 9 -9 9 -11 0 -12 -4 -4 -14z"/>
<path d="M910 4903 c0 -5 5 -15 11 -23 9 -13 10 -13 6 2 -3 9 -1 19 6 22 7 2
4 5 -5 5 -10 1 -18 -2 -18 -6z"/>
<path d="M890 4895 c0 -5 5 -17 10 -25 5 -8 10 -10 10 -5 0 6 -5 17 -10 25 -5
8 -10 11 -10 5z"/>
<path d="M757 4763 c-4 -3 -7 -15 -7 -25 0 -11 -4 -17 -9 -14 -4 3 -7 -5 -6
-19 2 -17 -1 -22 -12 -18 -12 5 -12 7 -1 14 9 6 6 8 -10 6 -22 -1 -32 -17 -11
-17 7 0 0 -11 -15 -25 -15 -14 -25 -29 -21 -34 3 -5 1 -12 -5 -16 -5 -3 -10
-1 -10 4 0 6 -8 3 -18 -6 -22 -21 -19 -32 3 -13 17 14 21 0 5 -16 -7 -7 -6
-11 4 -11 8 0 12 5 9 10 -4 6 0 8 10 4 8 -3 21 0 27 8 10 12 8 13 -9 10 -12
-2 -19 0 -16 5 3 5 15 7 26 5 16 -3 19 0 14 15 -4 13 2 23 24 36 16 10 28 21
25 26 -3 4 -2 13 2 20 8 12 15 58 10 58 -1 0 -6 -3 -9 -7z m-53 -108 c-14 -14
-28 -25 -31 -25 -4 0 4 11 17 25 13 14 27 25 31 25 5 0 -3 -11 -17 -25z"/>
<path d="M935 4680 c-4 -6 2 -13 11 -17 16 -6 16 -7 -1 -13 -10 -4 -14 -9 -9
-12 5 -4 16 -1 25 5 13 11 13 14 -3 29 -10 10 -20 13 -23 8z"/>
<path d="M1060 4680 c-9 -6 -10 -10 -3 -10 6 0 15 5 18 10 8 12 4 12 -15 0z"/>
<path d="M750 4640 c0 -5 5 -10 11 -10 5 0 7 5 4 10 -3 6 -8 10 -11 10 -2 0
-4 -4 -4 -10z"/>
<path d="M719 4624 c-6 -41 -5 -51 7 -51 20 0 24 20 8 42 -8 10 -15 15 -15 9z"/>
<path d="M1253 4623 c4 -6 1 -15 -6 -20 -17 -13 -43 -10 -39 5 3 17 -2 15 -31
-12 l-26 -24 27 2 c15 1 32 5 39 9 6 4 14 3 18 -3 4 -7 12 -7 25 0 12 7 20 6
22 0 2 -6 9 -1 16 11 11 17 11 20 0 13 -7 -5 -21 -10 -32 -11 -15 -3 -16 -1
-7 11 9 11 9 16 0 22 -7 4 -9 3 -6 -3z m-49 -31 c3 -5 -1 -9 -9 -9 -8 0 -12 4
-9 9 3 4 7 8 9 8 2 0 6 -4 9 -8z"/>
<path d="M1415 4620 c-3 -5 -1 -10 4 -10 6 0 11 5 11 10 0 6 -2 10 -4 10 -3 0
-8 -4 -11 -10z"/>
<path d="M1536 4606 c3 -18 0 -23 -14 -22 -9 0 -20 8 -24 16 -6 11 -7 10 -5
-5 3 -30 52 -27 53 3 1 12 -2 25 -7 27 -4 3 -6 -5 -3 -19z"/>
<path d="M1575 4620 c-3 -5 -1 -10 4 -10 6 0 11 5 11 10 0 6 -2 10 -4 10 -3 0
-8 -4 -11 -10z"/>
<path d="M1656 4622 c-3 -5 1 -9 9 -9 8 0 12 4 9 9 -3 4 -7 8 -9 8 -2 0 -6 -4
-9 -8z"/>
<path d="M1695 4620 c3 -5 8 -10 11 -10 2 0 4 5 4 10 0 6 -5 10 -11 10 -5 0
-7 -4 -4 -10z"/>
<path d="M1774 4622 c4 -3 14 -7 22 -8 9 -1 13 0 10 4 -4 3 -14 7 -22 8 -9 1
-13 0 -10 -4z"/>
<path d="M2370 4619 c0 -5 5 -7 10 -4 6 3 10 8 10 11 0 2 -4 4 -10 4 -5 0 -10
-5 -10 -11z"/>
<path d="M2495 4620 c-3 -5 -1 -10 4 -10 6 0 11 5 11 10 0 6 -2 10 -4 10 -3 0
-8 -4 -11 -10z"/>
<path d="M2680 4620 c-9 -6 -10 -10 -3 -10 6 0 15 5 18 10 8 12 4 12 -15 0z"/>
<path d="M2736 4618 c3 -5 10 -6 15 -3 13 9 11 12 -6 12 -8 0 -12 -4 -9 -9z"/>
<path d="M2806 4618 c3 -5 10 -6 15 -3 13 9 11 12 -6 12 -8 0 -12 -4 -9 -9z"/>
<path d="M2875 4610 c10 -11 20 -20 23 -20 3 0 -3 9 -13 20 -10 11 -20 20 -23
20 -3 0 3 -9 13 -20z"/>
<path d="M3100 4620 c-9 -6 -10 -10 -3 -10 6 0 15 5 18 10 8 12 4 12 -15 0z"/>
<path d="M3156 4613 c-6 -14 -5 -15 5 -6 7 7 10 15 7 18 -3 3 -9 -2 -12 -12z"/>
<path d="M3287 4619 c7 -7 15 -10 18 -7 3 3 -2 9 -12 12 -14 6 -15 5 -6 -5z"/>
<path d="M3916 4607 c3 -10 9 -15 12 -12 3 3 0 11 -7 18 -10 9 -11 8 -5 -6z"/>
<path d="M4395 4609 c-4 -6 -5 -12 -2 -15 2 -3 7 2 10 11 7 17 1 20 -8 4z"/>
<path d="M1370 4596 c14 -18 13 -18 -10 -12 -22 6 -23 5 -6 -5 14 -9 21 -8 30
2 6 8 10 13 7 12 -2 -2 -11 3 -20 10 -14 11 -15 10 -1 -7z"/>
<path d="M1876 4595 c-3 -8 -1 -15 4 -15 6 0 10 7 10 15 0 8 -2 15 -4 15 -2 0
-6 -7 -10 -15z"/>
<path d="M1915 4600 c3 -5 8 -10 11 -10 2 0 4 5 4 10 0 6 -5 10 -11 10 -5 0
-7 -4 -4 -10z"/>
<path d="M3015 4600 c3 -5 8 -10 11 -10 2 0 4 5 4 10 0 6 -5 10 -11 10 -5 0
-7 -4 -4 -10z"/>
<path d="M3415 4600 c3 -5 8 -10 11 -10 2 0 4 5 4 10 0 6 -5 10 -11 10 -5 0
-7 -4 -4 -10z"/>
<path d="M765 4590 c3 -5 8 -10 11 -10 2 0 4 5 4 10 0 6 -5 10 -11 10 -5 0 -7
-4 -4 -10z"/>
<path d="M963 4593 c-15 -5 -17 -23 -4 -23 5 0 11 7 15 15 3 8 4 15 3 14 -1 0
-8 -3 -14 -6z"/>
<path d="M1465 4591 c-3 -5 -17 -8 -31 -5 -16 3 -23 1 -19 -6 8 -12 41 -8 57
8 7 7 9 12 6 12 -4 0 -9 -4 -13 -9z"/>
<path d="M1835 4590 c-3 -5 -1 -10 4 -10 6 0 11 5 11 10 0 6 -2 10 -4 10 -3 0
-8 -4 -11 -10z"/>
<path d="M2555 4591 c-9 -15 15 -25 28 -12 9 9 7 10 -7 5 -13 -5 -17 -4 -12 4
4 7 5 12 2 12 -3 0 -7 -4 -11 -9z"/>
<path d="M3173 4585 c0 -8 4 -12 9 -9 5 3 6 10 3 15 -9 13 -12 11 -12 -6z"/>
<path d="M1616 4578 c3 -4 14 -8 24 -8 10 0 21 4 24 8 3 5 -8 9 -24 9 -16 0
-27 -4 -24 -9z"/>
<path d="M1695 4580 c-2 -3 5 -7 16 -7 10 -1 19 2 19 6 0 9 -29 10 -35 1z"/>
<path d="M2495 4580 c3 -5 8 -10 11 -10 2 0 4 5 4 10 0 6 -5 10 -11 10 -5 0
-7 -4 -4 -10z"/>
<path d="M2646 4578 c3 -4 9 -8 15 -8 5 0 9 4 9 8 0 5 -7 9 -15 9 -8 0 -12 -4
-9 -9z"/>
<path d="M2690 4579 c0 -5 5 -7 10 -4 6 3 10 8 10 11 0 2 -4 4 -10 4 -5 0 -10
-5 -10 -11z"/>
<path d="M2735 4580 c3 -5 8 -10 11 -10 2 0 4 5 4 10 0 6 -5 10 -11 10 -5 0
-7 -4 -4 -10z"/>
<path d="M3298 4578 c6 -6 18 -8 28 -6 14 3 12 5 -9 10 -19 3 -25 2 -19 -4z"/>
<path d="M3650 4579 c0 -5 5 -7 10 -4 6 3 10 8 10 11 0 2 -4 4 -10 4 -5 0 -10
-5 -10 -11z"/>
<path d="M3038 4573 c7 -3 16 -2 19 1 4 3 -2 6 -13 5 -11 0 -14 -3 -6 -6z"/>
<path d="M4718 4399 c-7 -4 -6 -8 3 -11 18 -6 49 2 49 13 0 9 -36 8 -52 -2z"/>
<path d="M4794 4396 c11 -9 24 -16 30 -16 12 0 7 5 -24 19 -24 11 -24 11 -6
-3z"/>
<path d="M4917 4339 c7 -7 15 -10 18 -7 3 3 -2 9 -12 12 -14 6 -15 5 -6 -5z"/>
<path d="M4820 4255 c-8 -10 -21 -13 -34 -9 -20 6 -20 5 -4 -12 16 -17 19 -17
36 -1 10 9 22 14 25 10 4 -3 7 -1 7 5 0 19 -17 23 -30 7z"/>
<path d="M4820 4225 c-6 -8 -26 -12 -45 -11 -46 4 -77 -34 -34 -40 5 -1 13 -2
17 -3 5 0 14 -11 20 -23 6 -13 11 -17 11 -10 1 8 6 10 14 5 6 -4 20 -9 29 -10
17 -3 17 -2 0 15 -9 10 -19 16 -22 13 -8 -9 -30 -12 -30 -3 0 4 9 13 20 20 17
10 21 10 26 -3 4 -9 15 -20 25 -26 15 -7 17 -6 13 6 -3 8 -10 13 -14 10 -4 -3
-10 2 -14 10 -3 9 0 15 9 15 8 0 15 5 15 10 0 12 -22 9 -31 -4 -4 -4 -10 -3
-13 3 -4 6 -2 12 3 12 26 3 30 4 36 10 3 4 -1 9 -9 12 -8 3 -20 0 -26 -8z
m-49 -24 c0 10 2 10 5 2 3 -7 13 -9 22 -6 13 4 12 2 -3 -10 -19 -15 -45 -13
-45 5 0 5 -5 6 -12 2 -7 -4 -8 -3 -4 5 6 9 11 9 22 0 11 -9 14 -8 15 2z"/>
<path d="M4679 4198 c-7 -13 -14 -34 -15 -47 -3 -22 -2 -23 17 -5 13 12 16 21
9 28 -6 6 -4 16 7 28 9 10 11 18 5 18 -6 0 -17 -10 -23 -22z"/>
<path d="M4940 4200 c-12 -7 -10 -9 7 -7 12 0 19 5 17 9 -6 10 -6 10 -24 -2z"/>
<path d="M4910 4126 c0 -2 7 -7 16 -10 8 -3 12 -2 9 4 -6 10 -25 14 -25 6z"/>
<path d="M4653 3955 c0 -7 6 -11 14 -8 7 3 13 6 13 8 0 2 -6 5 -13 8 -8 3 -14
-1 -14 -8z"/>
<path d="M4683 3942 c-8 -5 -6 -14 8 -31 10 -13 19 -18 19 -13 0 6 -5 14 -11
17 -6 4 -8 13 -5 21 6 16 5 16 -11 6z"/>
<path d="M4654 3880 c0 -40 3 -47 14 -38 9 8 10 14 2 22 -18 18 -11 27 13 16
20 -10 20 -10 5 3 -10 8 -15 16 -13 19 3 3 0 10 -8 16 -10 9 -13 1 -13 -38z"/>
<path d="M4660 3815 c-10 -12 -9 -16 4 -21 9 -4 20 -4 23 0 4 3 -2 6 -12 6
-14 0 -15 3 -5 15 7 8 10 15 7 15 -2 0 -10 -7 -17 -15z"/>
<path d="M4690 3819 c0 -5 5 -7 10 -4 6 3 10 8 10 11 0 2 -4 4 -10 4 -5 0 -10
-5 -10 -11z"/>
<path d="M4655 3769 c-4 -6 -5 -12 -2 -15 2 -3 7 2 10 11 7 17 1 20 -8 4z"/>
<path d="M4666 3734 c-5 -14 -4 -15 9 -4 17 14 19 20 6 20 -5 0 -12 -7 -15
-16z"/>
<path d="M4655 3700 c3 -5 8 -10 11 -10 2 0 4 5 4 10 0 6 -5 10 -11 10 -5 0
-7 -4 -4 -10z"/>
<path d="M4686 3658 c3 -5 10 -6 15 -3 13 9 11 12 -6 12 -8 0 -12 -4 -9 -9z"/>
<path d="M4655 3621 c-3 -5 0 -13 6 -17 7 -4 9 -3 5 4 -3 5 0 13 6 15 9 4 10
6 1 6 -6 1 -14 -3 -18 -8z"/>
<path d="M4690 3620 c0 -5 5 -10 11 -10 5 0 7 5 4 10 -3 6 -8 10 -11 10 -2 0
-4 -4 -4 -10z"/>
<path d="M4670 3579 c0 -5 5 -7 10 -4 6 3 10 8 10 11 0 2 -4 4 -10 4 -5 0 -10
-5 -10 -11z"/>
<path d="M4661 3493 c1 -5 1 -10 -1 -13 -7 -20 -8 -50 -1 -50 5 0 8 10 7 23
-1 14 4 21 13 19 12 -3 12 0 1 12 -14 17 -21 20 -19 9z"/>
<path d="M4666 3405 c-11 -8 -15 -15 -9 -15 6 0 16 7 23 15 16 19 11 19 -14 0z"/>
<path d="M4650 3331 c0 -6 4 -13 10 -16 6 -3 7 1 4 9 -7 18 -14 21 -14 7z"/>
<path d="M4654 3238 c-4 -5 -3 -12 0 -15 3 -4 6 -1 6 5 0 6 7 9 15 6 8 -4 15
-2 15 3 0 12 -29 13 -36 1z"/>
<path d="M490 3219 c0 -5 5 -7 10 -4 6 3 10 8 10 11 0 2 -4 4 -10 4 -5 0 -10
-5 -10 -11z"/>
<path d="M4655 3180 c-3 -5 -1 -10 4 -10 6 0 11 5 11 10 0 6 -2 10 -4 10 -3 0
-8 -4 -11 -10z"/>
<path d="M4654 3139 c-3 -6 -2 -15 3 -20 5 -5 9 -1 10 11 2 22 -2 25 -13 9z"/>
<path d="M4695 3140 c-3 -5 -1 -10 4 -10 6 0 11 5 11 10 0 6 -2 10 -4 10 -3 0
-8 -4 -11 -10z"/>
<path d="M490 3099 c0 -5 5 -7 10 -4 6 3 10 8 10 11 0 2 -4 4 -10 4 -5 0 -10
-5 -10 -11z"/>
<path d="M4676 3078 c3 -5 10 -6 15 -3 13 9 11 12 -6 12 -8 0 -12 -4 -9 -9z"/>
<path d="M4655 3039 c-3 -4 2 -6 10 -5 21 3 28 13 10 13 -9 0 -18 -4 -20 -8z"/>
<path d="M490 2979 c0 -5 5 -7 10 -4 6 3 10 8 10 11 0 2 -4 4 -10 4 -5 0 -10
-5 -10 -11z"/>
<path d="M4655 2929 c-4 -6 -5 -12 -2 -15 2 -3 7 2 10 11 7 17 1 20 -8 4z"/>
<path d="M4674 2886 c1 -8 5 -18 8 -22 4 -3 5 1 4 10 -1 8 -5 18 -8 22 -4 3
-5 -1 -4 -10z"/>
<path d="M4655 2809 c-4 -6 -5 -12 -2 -15 2 -3 7 2 10 11 7 17 1 20 -8 4z"/>
<path d="M4686 2738 c3 -5 10 -6 15 -3 13 9 11 12 -6 12 -8 0 -12 -4 -9 -9z"/>
<path d="M4650 2716 c0 -8 4 -18 10 -21 6 -4 7 1 3 11 -5 13 -3 15 7 9 9 -5
11 -4 6 3 -10 17 -26 15 -26 -2z"/>
<path d="M4656 2558 c3 -5 10 -6 15 -3 13 9 11 12 -6 12 -8 0 -12 -4 -9 -9z"/>
<path d="M4650 2471 c0 -6 4 -13 10 -16 6 -3 7 1 4 9 -7 18 -14 21 -14 7z"/>
<path d="M4670 2385 c0 -7 30 -13 34 -7 3 4 -4 9 -15 9 -10 1 -19 0 -19 -2z"/>
<path d="M4693 2269 c-2 -23 3 -25 10 -4 4 8 3 16 -1 19 -4 3 -9 -4 -9 -15z"/>
<path d="M4655 2260 c3 -5 8 -10 11 -10 2 0 4 5 4 10 0 6 -5 10 -11 10 -5 0
-7 -4 -4 -10z"/>
<path d="M4695 2221 c-3 -5 -2 -12 3 -15 5 -3 9 1 9 9 0 17 -3 19 -12 6z"/>
<path d="M4655 2100 c-3 -5 -1 -10 4 -10 6 0 11 5 11 10 0 6 -2 10 -4 10 -3 0
-8 -4 -11 -10z"/>
<path d="M4686 2102 c-3 -5 1 -9 9 -9 8 0 12 4 9 9 -3 4 -7 8 -9 8 -2 0 -6 -4
-9 -8z"/>
<path d="M4650 2071 c0 -6 4 -13 10 -16 6 -3 7 1 4 9 -7 18 -14 21 -14 7z"/>
<path d="M4655 2019 c-4 -6 -5 -12 -2 -15 2 -3 7 2 10 11 7 17 1 20 -8 4z"/>
<path d="M4695 1989 c-4 -6 -5 -12 -2 -15 2 -3 7 2 10 11 7 17 1 20 -8 4z"/>
<path d="M4660 1966 c0 -2 8 -10 18 -17 15 -13 16 -12 3 4 -13 16 -21 21 -21
13z"/>
<path d="M4650 1921 c0 -11 4 -22 9 -25 4 -3 6 6 3 19 -5 30 -12 33 -12 6z"/>
<path d="M4693 1855 c0 -8 4 -12 9 -9 5 3 6 10 3 15 -9 13 -12 11 -12 -6z"/>
<path d="M4650 1801 c0 -11 4 -22 9 -25 4 -3 6 6 3 19 -5 30 -12 33 -12 6z"/>
<path d="M4655 1740 c3 -5 8 -10 11 -10 2 0 4 5 4 10 0 6 -5 10 -11 10 -5 0
-7 -4 -4 -10z"/>
<path d="M4655 1700 c-3 -5 -1 -10 4 -10 6 0 11 5 11 10 0 6 -2 10 -4 10 -3 0
-8 -4 -11 -10z"/>
<path d="M4673 1595 c0 -8 4 -12 9 -9 4 3 8 9 8 15 0 5 -4 9 -8 9 -5 0 -9 -7
-9 -15z"/>
<path d="M255 983 c3 -3 0 -11 -5 -18 -7 -8 -5 -12 4 -12 14 0 16 22 3 32 -4
3 -5 2 -2 -2z"/>
<path d="M337 959 c4 -13 8 -18 11 -10 2 7 -1 18 -6 23 -8 8 -9 4 -5 -13z"/>
<path d="M407 957 c4 -6 0 -8 -11 -4 -9 4 -14 3 -11 -2 3 -5 1 -12 -5 -16 -5
-3 -10 0 -10 7 -1 7 -8 1 -16 -14 -16 -30 -27 -38 -18 -13 5 12 0 15 -24 13
-17 -1 -28 -6 -26 -10 3 -4 0 -8 -5 -8 -6 0 -11 8 -11 18 0 12 -4 10 -13 -8
-7 -14 -9 -27 -5 -28 4 -2 6 -8 2 -13 -3 -5 0 -9 6 -9 6 0 9 -4 6 -8 -2 -4 4
-8 14 -8 10 0 16 5 13 10 -3 5 -1 6 6 2 7 -5 10 -2 9 6 -2 7 3 12 10 10 8 -1
11 2 6 9 -4 8 -3 9 5 5 7 -5 9 -12 3 -19 -4 -7 -7 -22 -6 -34 1 -13 -3 -20 -9
-16 -6 4 -7 1 -3 -8 4 -8 -1 -4 -11 7 -17 19 -21 20 -39 7 -18 -15 -18 -15 4
-8 16 5 22 2 22 -10 0 -10 -5 -13 -12 -9 -8 5 -7 0 2 -11 14 -17 13 -18 -3
-12 -11 4 -16 3 -12 -3 3 -6 13 -10 21 -10 8 0 12 -4 9 -10 -3 -5 -1 -10 5
-10 7 0 9 8 5 19 -4 13 2 25 18 38 16 12 23 26 20 41 -4 28 41 76 63 68 8 -3
12 -2 9 3 -3 5 -1 12 5 16 6 4 7 11 4 17 -4 7 -2 8 5 4 6 -4 9 -11 6 -16 -3
-5 5 -16 17 -24 12 -9 18 -16 12 -16 -5 0 -15 5 -21 11 -19 19 -26 -11 -7 -32
16 -17 19 -18 27 -4 4 8 13 13 19 9 5 -4 4 4 -3 17 -7 13 -12 29 -11 36 1 6
-3 15 -10 19 -19 12 -58 13 -51 1z m51 -22 c-3 -3 -9 2 -12 12 -6 14 -5 15 5
6 7 -7 10 -15 7 -18z m-38 10 c0 -2 -10 -9 -22 -15 -22 -11 -22 -10 -4 4 21
17 26 19 26 11z m-64 -43 c-17 -16 -18 -16 -5 5 7 12 15 20 18 17 3 -2 -3 -12
-13 -22z m-49 -9 c-23 -24 -29 -26 -37 -13 -14 21 -12 30 4 24 8 -3 17 -1 21
5 3 6 14 11 23 11 13 0 10 -6 -11 -27z m148 -11 c-3 -3 -11 0 -18 7 -9 10 -8
11 6 5 10 -3 15 -9 12 -12z"/>
<path d="M289 893 c-13 -16 -12 -17 4 -4 16 13 21 21 13 21 -2 0 -10 -8 -17
-17z"/>
<path d="M233 925 c0 -8 4 -12 9 -9 5 3 6 10 3 15 -9 13 -12 11 -12 -6z"/>
<path d="M391 901 c-8 -6 -9 -11 -3 -15 6 -3 14 -1 17 5 9 14 2 20 -14 10z"/>
<path d="M235 850 c3 -5 8 -10 11 -10 2 0 4 5 4 10 0 6 -5 10 -11 10 -5 0 -7
-4 -4 -10z"/>
<path d="M307 853 c-4 -3 -7 -11 -7 -17 0 -6 5 -5 12 2 6 6 9 14 7 17 -3 3 -9
2 -12 -2z"/>
<path d="M4675 820 c-3 -5 -1 -10 4 -10 6 0 11 5 11 10 0 6 -2 10 -4 10 -3 0
-8 -4 -11 -10z"/>
<path d="M236 781 c-3 -5 2 -15 12 -22 15 -12 16 -12 5 2 -7 9 -10 19 -6 22 3
4 4 7 0 7 -3 0 -8 -4 -11 -9z"/>
<path d="M4670 780 c0 -5 5 -10 11 -10 5 0 7 5 4 10 -3 6 -8 10 -11 10 -2 0
-4 -4 -4 -10z"/>
<path d="M433 725 c0 -8 7 -17 14 -19 8 -3 11 -10 8 -16 -3 -6 1 -7 10 -4 12
5 13 10 4 20 -8 10 -5 12 15 8 14 -2 26 0 26 4 0 5 -12 8 -27 7 -16 -1 -33 2
-39 6 -6 5 -11 3 -11 -6z"/>
<path d="M483 704 c4 -4 3 -12 -3 -18 -6 -8 -3 -12 9 -13 22 -2 24 24 2 32 -8
3 -12 3 -8 -1z"/>
<path d="M4650 656 c0 -2 8 -10 18 -17 15 -13 16 -12 3 4 -13 16 -21 21 -21
13z"/>
<path d="M490 599 c0 -5 5 -7 10 -4 6 3 10 8 10 11 0 2 -4 4 -10 4 -5 0 -10
-5 -10 -11z"/>
<path d="M4653 495 c-3 -9 -3 -19 1 -22 3 -4 6 1 6 11 0 10 5 14 12 10 7 -4 8
-3 4 4 -10 16 -15 15 -23 -3z"/>
<path d="M4596 438 c3 -5 10 -6 15 -3 13 9 11 12 -6 12 -8 0 -12 -4 -9 -9z"/>
<path d="M4285 423 c-16 -13 -17 -15 -2 -10 23 9 21 -1 -5 -24 l-23 -20 28 17
c18 11 27 12 27 5 0 -7 5 -9 11 -5 8 4 7 9 -2 15 -10 6 -10 9 -2 9 6 0 14 -4
17 -8 7 -12 -10 -36 -21 -29 -5 3 -15 2 -22 -2 -10 -6 -9 -10 4 -14 11 -5 14
-3 9 6 -4 6 4 2 16 -10 22 -21 22 -23 7 -47 -17 -26 -23 -61 -9 -52 15 9 35
-12 29 -29 -4 -9 -12 -13 -18 -9 -8 5 -8 9 1 14 9 5 9 9 1 14 -6 4 -11 2 -11
-3 0 -6 -5 -11 -11 -11 -5 0 -8 4 -5 8 2 4 1 14 -5 22 -6 11 -9 12 -9 2 0 -8
-5 -10 -12 -6 -7 4 -5 -2 5 -13 9 -11 14 -23 10 -28 -5 -4 -2 -4 6 0 10 6 13
4 9 -7 -4 -8 -2 -21 2 -29 6 -8 4 -16 -3 -21 -8 -5 -7 -8 4 -8 9 0 20 7 23 16
3 9 11 12 18 8 7 -4 10 -4 6 1 -4 4 -3 14 3 22 9 10 8 13 0 13 -7 0 -9 5 -6
10 5 8 12 7 23 -2 10 -7 14 -8 10 -4 -4 5 0 15 10 23 16 14 16 14 0 9 -23 -7
-31 9 -18 34 9 16 8 25 -2 38 -9 11 -10 14 0 8 6 -4 12 -4 13 1 0 4 2 19 3 32
3 21 -23 55 -42 56 -4 1 -16 6 -27 12 -16 9 -25 8 -40 -4z m79 -57 c-10 -8
-21 -12 -23 -10 -3 2 4 11 15 18 10 8 21 12 23 10 3 -2 -4 -11 -15 -18z m16
-20 c0 -2 -7 -7 -16 -10 -8 -3 -12 -2 -9 4 6 10 25 14 25 6z m-36 -68 c-5 -8
-1 -9 12 -4 14 5 16 4 7 -5 -6 -6 -16 -8 -22 -5 -14 9 -14 26 0 26 5 0 7 -5 3
-12z m6 -75 c0 -3 -6 -11 -14 -18 -12 -12 -15 -12 -19 -1 -3 8 -4 16 -1 18 5
6 34 6 34 1z"/>
<path d="M4279 338 c-11 -8 -11 -9 3 -5 10 4 18 -1 21 -14 3 -10 1 -19 -4 -19
-5 0 -9 -6 -9 -12 1 -7 10 -2 21 11 11 13 18 29 16 34 -4 14 -31 17 -48 5z"/>
</g>
</svg>
